<svg xmlns="http://www.w3.org/2000/svg" viewBox="0 0 96 96" role="img" aria-label="FIL">
  <defs><linearGradient id="g" x1="16" x2="82" y1="14" y2="82" gradientUnits="userSpaceOnUse"><stop stop-color="#4ade80"/><stop offset="1" stop-color="#0f766e"/></linearGradient></defs>
  <rect width="96" height="96" rx="28" fill="url(#g)"/>
  <path d="M59 23c-16 2-25 12-28 26h-8l-2 10h9c0 9 5 15 14 15 12 0 19-9 21-21h8l2-10h-9c0-4-1-8-3-11l-9 5c1 2 2 4 2 6H41c3-7 9-10 20-12l-2-8ZM41 59h14c-2 4-5 7-10 7-3 0-4-3-4-7Z" fill="#fff"/>
</svg>
