<svg xmlns="http://www.w3.org/2000/svg" viewBox="0 0 96 96" role="img" aria-label="SHIB">
  <defs><linearGradient id="g" x1="18" x2="78" y1="12" y2="84" gradientUnits="userSpaceOnUse"><stop stop-color="#f97316"/><stop offset="1" stop-color="#facc15"/></linearGradient></defs>
  <rect width="96" height="96" rx="28" fill="url(#g)"/>
  <path d="M26 40 18 25l20 9c6-4 14-4 20 0l20-9-8 15c4 16-6 33-22 33S22 56 26 40Z" fill="#fff"/>
  <path d="M35 50c0-4 3-7 7-7s6 3 6 7h-4c0-2-1-3-2-3s-3 1-3 3h-4Zm18 0c0-4 3-7 7-7s6 3 6 7h-4c0-2-1-3-2-3s-3 1-3 3h-4Z" fill="#7c2d12"/>
  <path d="M43 60h10l-5 5-5-5Z" fill="#7c2d12"/>
</svg>
